<svg width="22" height="22" viewBox="0 0 22 22" fill="none" xmlns="http://www.w3.org/2000/svg">
<path d="M21.7111 8.48889C21.6108 8.17369 21.4246 7.89273 21.1733 7.6776C20.9221 7.46246 20.6158 7.32169 20.2889 7.27111L15 6.45333L12.6533 1.62667C12.5093 1.3285 12.2849 1.07649 12.0053 0.89902C11.7258 0.721552 11.4022 0.625685 11.0711 0.622223V0.622223C10.7421 0.622397 10.4195 0.713893 10.1394 0.886524C9.85926 1.05915 9.63253 1.30615 9.48446 1.6L7.05335 6.38667L1.72001 7.11556C1.39095 7.1604 1.08103 7.29652 0.825365 7.50849C0.569705 7.72046 0.378532 7.99981 0.273511 8.31487C0.168491 8.62993 0.153821 8.96811 0.231167 9.29109C0.308512 9.61406 0.474779 9.90891 0.711124 10.1422L4.51557 13.9156L3.59112 19.1911C3.53273 19.5175 3.56678 19.8537 3.68943 20.1618C3.81207 20.4699 4.01843 20.7375 4.28519 20.9344C4.55194 21.1314 4.86846 21.2498 5.19897 21.2763C5.52949 21.3028 5.86083 21.2364 6.15557 21.0844L10.92 18.6311L15.6445 21.1644C15.9039 21.3045 16.1941 21.3778 16.4889 21.3778C16.7465 21.3773 17.001 21.3209 17.2347 21.2124C17.4684 21.1038 17.6757 20.9458 17.8422 20.7493C18.0088 20.5527 18.1306 20.3223 18.1993 20.0739C18.268 19.8256 18.2819 19.5653 18.24 19.3111L17.3778 14.0178L21.2489 10.3111C21.4885 10.0809 21.6589 9.78818 21.7406 9.4661C21.8223 9.14401 21.8121 8.80547 21.7111 8.48889V8.48889ZM16.1467 12.7378C15.9387 12.9372 15.7822 13.1842 15.6909 13.4575C15.5995 13.7308 15.576 14.0222 15.6222 14.3067L16.4845 19.5956L11.76 17.0622C11.505 16.9283 11.2213 16.8583 10.9333 16.8583C10.6453 16.8583 10.3617 16.9283 10.1067 17.0622L5.34224 19.5067L6.2889 14.2311C6.34004 13.9475 6.32145 13.6556 6.23473 13.3808C6.14802 13.1059 5.99578 12.8563 5.79112 12.6533L1.98224 8.87556L7.31557 8.15111C7.59908 8.1097 7.86839 8.00037 8.10054 7.83245C8.3327 7.66452 8.52083 7.44297 8.6489 7.18667L11.0622 2.4L13.3956 7.22667C13.5209 7.48713 13.7078 7.71311 13.9401 7.88503C14.1724 8.05696 14.4432 8.16965 14.7289 8.21333L20.0267 9.02667L16.1467 12.7378Z" fill="#B9CBD3"/>
</svg>
